# xmcd
#
# Track frame offsets:
#  150
#  16207
#  33025
#  46395
#  58732
#  71720
#  83700
#  98680
#  111925
#  123455
#  136065
#  149855
#
# Disc length: 2155 seconds
#
# Revision: 0
# Processed by: cddbd v1.5.1PL2 Copyright (c) Steve Scherf et al.
# Submitted via: Collectorz.com_Music_Collector 6.11
#
DISCID=a508690c
DTITLE=Ray Conniff - Ray Conniff And The Singers
DYEAR=1994
DGENRE=Instrumental
TTITLE0=Yesterday Once More
TTITLE1=I Won´t Last A Day Without You
TTITLE2=Top Of The World
TTITLE3=Rainy Days And Mondays
TTITLE4=For Alle We Know
TTITLE5=Sing
TTITLE6=Superstar/There Was A Boy
TTITLE7=We've Only Just Begun
TTITLE8=Hurting Each Other
TTITLE9=Bless The Beats And Children
TTITLE10=A Song Voor You
TTITLE11=(They Long To Be) Close To You
EXTD=
EXTT0=
EXTT1=
EXTT2=
EXTT3=
EXTT4=
EXTT5=
EXTT6=
EXTT7=
EXTT8=
EXTT9=
EXTT10=
EXTT11=
PLAYORDER=
